# xmcd
#
# Track frame offsets:
#	150
#	6977
#	21482
#	40150
#	60882
#	78608
#	97786
#	118323
#	135873
#	157149
#	178379
#	195419
#	215289
#	234714
#	260109
#	279050
#	299608
#	316645
#
# Disc length: 4460 seconds
#
# Revision: 1
# Processed by: cddbd v1.5.2PL0 Copyright (c) Steve Scherf et al.
# Submitted via: audiograbber 1.80.04
#
DISCID=fc116a12
DTITLE=Darren Coggan - War Stories
DYEAR=2008
DGENRE=Country
TTITLE0=Darren Coggan - The Last Post
TTITLE1=Darren Coggan - Mad For A Fight
TTITLE2=Darren Coggan - Bathurst 1910
TTITLE3=Darren Coggan - The Nek
TTITLE4=Darren Coggan - My Worry Not Yours
TTITLE5=Darren Coggen - Cheer Up Mate
TTITLE6=Darren Coggan - The War To End All Wars Ended Today
TTITLE7=Darren Coggan - Too Dark For The Light Horse
TTITLE8=Darren Coggan - Who's A Koala Now
TTITLE9=Darren Coggan - The Shadow Of The Bridge
TTITLE10=Darren Coggan - Memories Of A Home Melody
TTITLE11=Darren Coggan - Sisters In Arms
TTITLE12=Darren Coggan - Meet My Mate The Sheila
TTITLE13=Darren Coggan - Waltzing Matilda Still Makes Her Cry
TTITLE14=Darren Coggan - Silent Man
TTITLE15=Darren Coggan - Birthday Boy
TTITLE16=Darren Coggan - A Different World
TTITLE17=Darren Coggan - Grass And Cement
EXTD=
EXTT0=
EXTT1=
EXTT2=
EXTT3=
EXTT4=
EXTT5=
EXTT6=
EXTT7=
EXTT8=
EXTT9=
EXTT10=
EXTT11=
EXTT12=
EXTT13=
EXTT14=
EXTT15=
EXTT16=
EXTT17=
PLAYORDER=
